<svg width="22" height="25" viewBox="0 0 22 25" fill="none" xmlns="http://www.w3.org/2000/svg">
<path d="M0.653124 5.88578C0.292412 4.26867 1.31093 2.66533 2.92804 2.30462L10.3319 0.653124C11.949 0.292412 13.5523 1.31093 13.913 2.92804L16.8505 16.0971C17.2112 17.7142 16.1927 19.3175 14.5756 19.6782L7.17177 21.3297C5.55466 21.6904 3.95131 20.6719 3.5906 19.0548L0.653124 5.88578Z" fill="#021E2B"/>
<path d="M4.97479 8.90294C4.61408 7.28582 5.6326 5.68248 7.24971 5.32177L14.6535 3.67028C16.2707 3.30956 17.874 4.32808 18.2347 5.94519L21.1722 19.1142C21.5329 20.7313 20.5144 22.3347 18.8973 22.6954L11.4934 24.3469C9.87633 24.7076 8.27298 23.6891 7.91227 22.072L4.97479 8.90294Z" fill="#19485F"/>
</svg>
